PathFileType	4	(X/Y/Z)	C:\Users\u0145647\OneDrive - KU Leuven\KU Leuven\c3d2osim\CP4\T0\Data\Processed\ViconC3D_CP4_2\CP4_T0_10_gapFilled.trc
DataRate	CameraRate	NumFrames	NumMarkers	Units	OrigDataRate	OrigDataStartFrame	OrigNumFrames
100.000000	100.000000	11	47	mm	100.000000	396	633
Frame#	Time	C7			T10			CLAV			STRN			LSHO			RSHO			RBAK			LASI			RASI			LPSI			RPSI			LLAT			RLAT			LF1			LF2			LF3			LTHI			LKNE			LMEK			RF1			RF2			RF3			RTHI			RKNE			RMEK			LT1			LT2			LT3			LTIB			LANK			LMM			RT1			RT2			RT3			RTIB			RANK			RMM			LHEE			LSTL			LLCA			LTOE			LCM5			RHEE			RSTL			RLCA			RTOE			RCM5
		X1	Y1	Z1	X2	Y2	Z2	X3	Y3	Z3	X4	Y4	Z4	X5	Y5	Z5	X6	Y6	Z6	X7	Y7	Z7	X8	Y8	Z8	X9	Y9	Z9	X10	Y10	Z10	X11	Y11	Z11	X12	Y12	Z12	X13	Y13	Z13	X14	Y14	Z14	X15	Y15	Z15	X16	Y16	Z16	X17	Y17	Z17	X18	Y18	Z18	X19	Y19	Z19	X20	Y20	Z20	X21	Y21	Z21	X22	Y22	Z22	X23	Y23	Z23	X24	Y24	Z24	X25	Y25	Z25	X26	Y26	Z26	X27	Y27	Z27	X28	Y28	Z28	X29	Y29	Z29	X30	Y30	Z30	X31	Y31	Z31	X32	Y32	Z32	X33	Y33	Z33	X34	Y34	Z34	X35	Y35	Z35	X36	Y36	Z36	X37	Y37	Z37	X38	Y38	Z38	X39	Y39	Z39	X40	Y40	Z40	X41	Y41	Z41	X42	Y42	Z42	X43	Y43	Z43	X44	Y44	Z44	X45	Y45	Z45	X46	Y46	Z46	X47	Y47	Z47

396	3.95	1710.3	1417.2	-177.89	1682.8	1159.6	-205.41	1825.2	1336	-167.92	1855.6	1185.4	-164.78	1808.1	1372.3	-386.1	1738.8	1361.5	20.186	1659.1	1328.6	-59.125	1875.6	905.11	-244.48	1811.1	906.55	-53.163	1693.6	936.96	-243.53	1670.4	946.41	-173.85	1832.2	968.84	-316.51	1733.3	977.44	-34.578	1933.3	673.12	-326.87	1902.1	708.15	-333.69	1904.3	655.03	-335.99	1951.8	591.97	-371.24	2010.5	487.29	-293.11	NaN	NaN	NaN	1728.6	621.68	-44.746	1752.2	653.23	-41.874	1690.6	658.63	-41.461	1735.6	556	-13.223	1732.6	435.13	-96.717	NaN	NaN	NaN	2010.5	307.25	-310.07	2040.6	358.46	-299.73	1990.7	348.17	-308.49	2082.9	260.46	-337.54	2070.8	81.533	-287.38	2090.2	93.576	-201.19	1633.3	319.98	-76.148	1675.7	342.7	-93.779	1639.7	372.44	-71.523	1612.1	249.2	-38.217	1476.9	128.61	-85.036	1482.8	141.96	-172.94	2031.7	53.065	-236.08	2095.8	63.313	-205.33	2083.9	54.915	-282.33	2204.4	68.789	-257.49	2191.4	61.306	-299.67	1425.9	151.66	-118.97	1463.8	110.64	-167.65	1470	103.43	-89.647	1569.9	48.31	-139.62	1547.8	39.15	-84.07
397	3.96	1721.5	1416.9	-180.75	1695.6	1159.1	-206.68	1836.6	1336.2	-169.35	1867.7	1185.9	-165.65	1821.4	1371.6	-387.83	1748.1	1361.6	17.879	1669.5	1327.7	-62.421	1887.6	904.09	-245.39	1823.7	906.01	-53.829	1705.9	937.74	-244.39	1682.9	946.69	-174.23	1845.4	967.54	-316.93	1746.1	977.27	-34.996	1944.8	671.77	-328.24	1913.7	706.54	-334.92	1915.5	653.49	-336	1961.3	589.91	-371.43	2024.3	489.19	-293.26	NaN	NaN	NaN	1737.7	621.26	-44.54	1761.7	652.58	-41.879	1700.4	658.53	-41.264	1743.8	555.44	-12.951	1739.3	434.83	-95.814	NaN	NaN	NaN	2019.8	311.06	-309.8	2052.6	361.4	-299.45	2001.5	351.83	-306.43	2093.9	262.85	-336.82	2073.7	81.676	-287.19	2091.7	93.231	-200.84	1638.5	320.63	-75.533	1681.1	342.71	-93.26	1645.4	372.94	-70.874	1616.3	250.19	-37.335	1479.7	131.36	-84.066	1486.1	144.31	-172.01	2033.3	53.651	-236.3	2097	62.568	-204.91	2086.2	54.681	-282.12	2206.4	66.638	-255.4	2193.9	59.221	-297.86	1429.3	155.28	-117.95	1466.7	113.43	-166.78	1472.5	106.17	-88.786	1570.8	48.331	-139.27	1548.9	39.691	-83.895
398	3.97	1733	1417.4	-183.31	1708	1158.9	-208.19	1848	1337	-170.85	1879.8	1187	-166.71	1834.4	1371.1	-389.64	1757.3	1362.2	16.076	1680	1327.7	-65.495	1899.8	903.75	-246.24	1836	905.77	-54.692	1718	938.67	-244.66	1695.2	947.23	-174.22	1858.2	966.57	-317.25	1759.5	977.61	-35.274	1957	671.54	-329.7	1926.3	706.33	-336.28	1927.5	653.62	-336.8	NaN	NaN	NaN	2040.2	492.77	-292.64	NaN	NaN	NaN	1747	621.24	-44.305	1771.3	652.23	-42.046	1710	658.86	-41.147	1752.6	555.45	-12.483	1746.4	434.25	-95.604	NaN	NaN	NaN	2030.7	314.66	-311.58	2064	363.64	-298.95	2012.8	356.09	-307.9	2105.4	263.74	-334.43	2076.1	82.386	-286.9	2093.4	93.179	-200.29	1644.2	321.63	-75.26	1687.1	343.15	-92.641	1651.8	373.99	-70.49	1621.1	251.81	-36.539	1483.1	133.9	-83.194	1489.6	147.01	-171.12	2034.8	55.074	-236.98	2098.4	62.368	-204.53	2088.1	54.962	-281.96	2208.2	64.872	-253.92	2196.2	57.56	-296.53	1432.9	159.01	-116.99	1469.6	116.42	-165.76	1475.2	108.95	-87.87	1571.6	48.408	-139.29	1549.7	40.01	-83.734
399	3.98	1744.7	1418	-185.74	1720.5	1159.3	-209.2	1859.5	1338.1	-172.3	1892	1188.2	-167.77	1847.4	1371.2	-391.19	1766.8	1363.3	14.084	1690.8	1328	-68.756	1912.3	904.34	-247.12	1848.5	905.73	-55.781	1730.2	939.55	-244.42	1707.5	947.79	-174.09	1871	966.33	-317.77	1773.4	978.37	-35.13	1970.5	673.36	-331.1	1939.6	708.08	-337.28	1941.2	655.12	-337.16	NaN	NaN	NaN	2055.4	495.75	-291.85	NaN	NaN	NaN	1756.9	621.49	-44.092	1781.2	652.46	-41.94	1720	659.59	-40.346	1761.8	555.72	-11.854	1753.6	434.23	-94.604	NaN	NaN	NaN	2041.7	317.02	-313.14	2075.7	364.99	-298.3	2025.6	359.21	-310.63	2114	263.61	-333.89	2078.4	82.522	-286.6	2095.5	92.881	-200.06	1650.1	322.83	-74.595	1693.4	343.8	-91.802	1658.3	375.22	-69.93	1625.9	253.34	-35.733	1486.6	136.44	-82.334	1493.4	149.84	-170.08	2036.2	56.322	-237.15	2099.6	61.947	-204.16	2089.7	54.835	-281.76	2209.7	61.767	-252.79	2197.9	55.182	-295.63	1436.9	162.7	-116.28	1472.9	119.58	-164.88	1478.3	111.74	-87.046	1572.7	48.478	-138.84	1550.5	40.462	-83.436
400	3.99	1756.3	1418.6	-187.9	1733	1159.7	-210.1	1871.1	1339.3	-173.75	1904.3	1189.5	-168.86	1860.1	1371.6	-392.74	1776.6	1364.7	12.009	1702.4	1328	-71.839	1925.3	905.81	-247.92	1861.1	905.72	-56.971	1742.3	940.3	-243.96	1719.8	948.15	-173.71	1883.5	967.13	-318.41	1787.2	978.91	-34.91	1984.8	677.02	-331.18	1953.5	711.18	-337.53	1956	658.65	-337.05	NaN	NaN	NaN	2068.8	497.47	-291.49	NaN	NaN	NaN	1766.8	621.64	-43.551	1791.3	652.4	-42.144	1730.7	659.97	-39.933	1771.3	555.71	-11.067	1761.4	433.94	-93.91	NaN	NaN	NaN	2052.4	317.71	-314.62	2086.9	365.04	-298.16	2037.8	360.37	-313.12	2123.7	262.05	-332.82	2081.3	82.252	-287.19	2097.8	92.382	-200.29	1656.2	323.94	-73.763	1699.4	343.89	-91.333	1665.2	376.07	-69.33	1630.9	255.24	-34.754	1490.3	139.16	-81.508	1497.8	152.56	-169.16	2037.9	57.052	-237.84	2101.4	61.156	-204.4	2091.8	54.391	-281.99	2211.5	58.259	-252.23	2199.9	51.874	-294.94	1441.2	166.61	-115.59	1476.7	122.86	-164.04	1481.2	114.72	-86.462	1573.6	48.52	-138.56	1551.4	40.777	-83.263
401	4	1767.2	1419.3	-190.98	1745.4	1160	-211.11	1882.7	1340.4	-175.2	1916.5	1190.9	-169.95	1872.6	1372.5	-394.11	1787.1	1366.3	9.8631	1713.4	1329.2	-73.772	1938.4	907.82	-248.82	1873.9	905.61	-58.401	1754.8	941.01	-243.49	1732.2	948.55	-173.48	1894.3	968.7	-319.21	1801	979.46	-34.969	1999.4	681.65	-330.6	1968	715.58	-337.03	1971.3	663.34	-337.47	NaN	NaN	NaN	2080.6	497.79	-291.74	NaN	NaN	NaN	1777.3	621.63	-43.14	1802	652.39	-41.99	1741	660.22	-39.731	1781.8	556.15	-10.398	1769.4	433.55	-92.582	NaN	NaN	NaN	2062.1	317.28	-315.65	2097.3	363.89	-298.13	2048.9	360.45	-315.1	2133.1	259.53	-331.61	2084.7	81.777	-288.11	2100.7	91.873	-201.05	1662.5	325.07	-72.802	1706.7	344.73	-89.929	1672.3	377.17	-68.676	1635.6	256.8	-33.461	1494.2	142.12	-80.749	1502.5	155.49	-168.2	2039.9	58.283	-239.28	2103.2	60.473	-205.17	2093.8	53.286	-282.67	2214.1	56.04	-252.09	2202.2	48.86	-294.87	1445.9	170.9	-115.13	1480.7	126.35	-163.1	1484.7	117.95	-85.638	1574.7	48.693	-138.44	1552.2	41.28	-83.101
402	4.01	1778.7	1420	-193.5	1758.1	1160.5	-211.81	1894.5	1341.5	-176.65	1929	1192.2	-170.99	1885.1	1373.3	-395.51	1797.8	1367.9	7.8431	1725.4	1329.8	-76.599	1951.7	910.08	-249.68	1886.4	905.36	-59.92	1767.6	942.08	-243.46	1744.9	949.09	-173.65	1906.6	970.95	-320.29	1814.6	979.73	-35.247	2013.6	685.71	-329.8	1982.1	719.41	-336.78	1986.3	667.77	-338.21	NaN	NaN	NaN	2091.3	497.13	-292.48	NaN	NaN	NaN	1788.2	621.53	-42.729	1812.9	652.08	-41.894	1752.2	660.54	-39.439	1792.5	556.12	-9.5908	1777.9	433.32	-90.814	NaN	NaN	NaN	2071.2	316.83	-316.51	2106.9	362.58	-298.39	2058.9	359.98	-316.18	2141.2	257.99	-331.47	2087.5	81.178	-289.12	2102.8	91.528	-201.84	1669.1	326.32	-71.64	1713.6	344.93	-88.433	1679.5	378.47	-67.63	1640.9	259.25	-32.112	1498.3	145.68	-80.184	1508.1	158.62	-167.26	2041.5	58.605	-240.38	2104.4	60.229	-205.94	2095.8	52.784	-283.45	2216.2	55.073	-252.36	2204	47.416	-295.38	1451.1	175.5	-114.74	1485.7	130.18	-162.27	1488.5	121.51	-84.988	1576.1	48.875	-138.05	1553	41.753	-83.346
403	4.02	1790.2	1420.5	-195.36	1770.6	1161.1	-212.25	1906.3	1342.6	-178.13	1941.6	1193.5	-171.96	1897.4	1374.5	-397.03	1809	1369.5	5.8818	1737.2	1331.1	-78.54	1965.2	912.23	-250.5	1899.1	905.17	-61.579	1780.8	943.73	-244.15	1757.8	949.92	-174.13	1919.7	973.88	-320.96	1827.8	979.92	-35.962	2027.6	688.53	-329.32	1996.2	722.31	-336.95	2000.4	670.74	-339.17	NaN	NaN	NaN	2102.1	497.14	-292.93	NaN	NaN	NaN	1799.4	621.24	-42.459	1824.2	651.63	-42.424	1763.5	660.66	-39.284	1803.3	555.81	-8.9711	1786.9	433.11	-89.125	NaN	NaN	NaN	2079.6	316.63	-317.3	2115.8	361.53	-298.47	2068	360.2	-316.76	2148.7	255.9	-330.79	2088.5	80.678	-289.71	2103.7	91.352	-202.39	1676.4	327.91	-70.468	1721	345.6	-86.698	1687.4	379.74	-66.592	1646.4	261.5	-30.498	1503.7	149.17	-79.351	1514.3	162	-166.26	2042	59.104	-240.92	2104.9	59.913	-206.53	2096.1	52.255	-283.64	2217.2	54.208	-252.69	2204.9	46.192	-295.84	1457.2	180.65	-114.3	1491.2	134.39	-161.53	1492.7	125.54	-84.334	1577.7	49.445	-137.78	1554.2	42.463	-83.473
404	4.03	1801.7	1421.2	-197.25	1783.3	1161.6	-212.6	1918.1	1343.8	-179.52	1954.3	1195	-172.81	1909.7	1375.7	-398.26	1820.4	1371.3	4.1154	1748.9	1332.1	-80.173	1978.5	913.92	-251.06	1911.6	905.12	-63.127	1794.3	945.92	-245.66	1770.7	950.92	-175.17	1933	976.41	-321.7	1840.8	980	-36.945	2040.9	689.81	-329.12	2010	723.86	-337.43	2013.6	672.12	-339.69	NaN	NaN	NaN	2112.6	496.63	-292.64	NaN	NaN	NaN	1810.8	621.19	-42.481	1835.9	651.23	-43.25	1775.4	660.42	-39.37	1814.5	555.92	-8.6207	1796.9	433.2	-87.632	NaN	NaN	NaN	2086.9	316.68	-317.76	2123.9	360.8	-298.33	2076.3	360.57	-317.26	2155.4	254.45	-329.2	2089.4	80.497	-289.96	2104	91.132	-202.63	1684.6	329.95	-69.21	1729.8	346.65	-84.844	1696.4	381.56	-65.792	1652.8	264.77	-28.829	1509.5	153.39	-78.433	1521.5	165.76	-165.04	2042.5	59.471	-241.96	2104.9	59.712	-206.61	2096.7	52.156	-284.54	2218	53.83	-252.25	2205.5	45.348	-295.76	1464	186.34	-113.87	1497.5	139.21	-160.54	1497.9	130	-83.035	1579.6	50.274	-137.33	1555.7	43.684	-83.309
405	4.04	1813	1422.1	-199.03	1796.1	1161.9	-212.73	1930	1345.1	-180.76	1966.9	1196.5	-173.56	1921.7	1376.7	-399.3	1831.9	1372.9	2.2548	1760.4	1333.3	-81.499	1991.6	915.1	-251.31	1923.6	905.34	-64.526	1807.7	947.94	-247.24	1783.8	951.95	-177.33	1947.1	978.86	-322.29	1853.2	980.06	-38.064	2053.9	689.45	-329.62	2023.5	724.2	-337.75	2026.3	672.49	-340.03	NaN	NaN	NaN	2123.1	496.33	-291.84	NaN	NaN	NaN	1822.3	621.52	-42.618	1847.5	651.63	-43.464	1786.8	660.72	-40.071	1825.5	556.54	-8.3812	1807.8	433.38	-86.465	NaN	NaN	NaN	2093.5	317.1	-317.55	2131.3	360.2	-297.9	2083.5	361.03	-316.89	2160.1	252.97	-328.58	2091	80.393	-290.31	2104.7	90.933	-202.45	1693.8	332.43	-67.955	1739.8	348.58	-82.391	1706.5	384.11	-64.903	1660	268.55	-26.945	1516.3	158.11	-77.498	1529.6	170.07	-163.82	2043.1	60.118	-242.7	2104.6	59.801	-206.06	2097.4	51.864	-284.45	2219.1	53.279	-251.59	2206.3	44.778	-295.28	1472.4	192.36	-113.16	1504.8	144.39	-159.43	1504.2	135.07	-82.171	1582	51.48	-136.55	1558	45.623	-82.59
406	4.05	1824.4	1422.8	-200.71	1808.6	1162.6	-213.11	1941.9	1346.4	-181.79	1979.6	1198.1	-174.26	1933.4	1377.5	-400.38	1843.3	1374.3	0.852	1772.5	1334.2	-82.861	2004.8	916.1	-251.43	1935.5	905.84	-65.788	1820.9	950.22	-249.65	1796.5	953.28	-179.47	1961.6	980.78	-322.66	1864.9	980.17	-39.501	2066.5	688.18	-329.72	2036.8	723.62	-338.42	2038.6	671.94	-340.45	NaN	NaN	NaN	2132.8	495.09	-290.6	NaN	NaN	NaN	1833.8	622.1	-43.063	1859.1	652.34	-43.902	1798.3	661.31	-41.212	1836.2	557.31	-8.3389	1819.6	434.1	-85.62	NaN	NaN	NaN	2099.8	317.07	-316.85	2138.5	359.53	-297.06	2090.7	361.39	-316.53	2164.3	252.53	-328.03	2092.3	80.489	-289.98	2105.6	90.475	-201.89	1704	335.43	-66.531	1750.4	350.43	-80.963	1717.6	386.56	-64.565	1668.3	272.7	-25.175	1524	163.33	-76.462	1538.8	174.47	-162.57	2043.9	60.733	-242.83	2105.6	58.932	-205.9	2098.3	51.772	-284.31	2220.2	52.591	-251.08	2207.2	44.338	-294.96	1481.6	198.55	-112.07	1513.1	149.72	-158.22	1511.7	140.31	-81.002	1585.1	52.951	-135.66	1561.1	47.36	-82.137
